<?xml version="1.0" encoding="UTF-8"?>
<svg width="580" height="580" version="1.0" xmlns="http://www.w3.org/2000/svg" xmlns:cc="http://creativecommons.org/ns#" xmlns:dc="http://purl.org/dc/elements/1.1/" xmlns:rdf="http://www.w3.org/1999/02/22-rdf-syntax-ns#">
 <title>waterfall</title>
 <metadata>
  <rdf:RDF>
   <cc:Work rdf:about="">
    <dc:format>image/svg+xml</dc:format>
    <dc:type rdf:resource="http://purl.org/dc/dcmitype/StillImage"/>
    <dc:title>waterfall</dc:title>
   </cc:Work>
  </rdf:RDF>
 </metadata>
 <g>
  <path d="m0 14.5v116h72.5c29 0 58 14.5 58 43.5v116c0 58 50.75 130.5 112.9 130.25-13.447 7.6263-26.926 14.754-40.404 14.754-29 0-58-33-87-33-21.15 0.25578-41.198 11.32-58 18.5-23.007 9.8178-29 14.5-29 43.5v47.5c0 39.5 14.499 48.382 37.711 39.459 16.321-9.3547 31.034-21.709 49.289-21.709 29 0 58 31.359 87 30.955 29-0.40412 58-30.955 87-30.955s58 29.64 87 29.646c29 6e-3 57.361-29.095 87-29.646s50.75 28.475 72.428 28.475c29.072 0 43.572-6.7246 43.572-35.725v-50.75c0-21.75-14.5-38.25-36.25-38.25-14.5-1.5511-40.459-14.996-50.75-19.75 19.998-3.4231 28.888-8.657 4-43.5-7.25-12.557-18.499-43.5-17.926-79.75l-0.57422-130.5c0-87-64.362-145-174-145zm265 355.25c21.75 21.75 61.25 50.75 90.25 50.75 36.25 0 50.75-8.169 25.75-50.75 12.688 12.688 39.5 36.25 59.053 38.262-21.098 9.4392-42.223 26.708-63.053 26.988-28.72 0.3871-58.629-33.034-87.314-33-2.649 3e-3 -11.531 3.4871-14.186 4 0.99427-7.4458 0.23596-21.22-10.5-36.25z" fill="#fff" fill-rule="evenodd" opacity="1"/>
  <path d="m465.11 431.34c-0.38 0.01-0.75 0.02-1.11 0.04-20.8 0-63.74 32.62-87 32.62-19.35 0-65.07-32.62-87-32.62s-67.6 32.62-87 32.62c-20.68 0-63.78-32.62-87-32.62-15.039 0-37.821 13.678-58.008 23.32l-0.07479 65.833c21.046-9.6659 44.442-23.913 58.083-23.913 21.93 0 63.78 32.63 87 32.63 20.68 0 64.92-32.63 87-32.63 21.93 0 66.2 32.63 87 32.63 21.93 0 66.36-32.63 87-32.63s65.07 32.63 87 32.63v-65.25c-17.78 0-62.36-32.87-85.89-32.66z" fill="#377ce5"/>
  <path d="m72.5 101.5c43.5 0 87 15.676 87 72.5v101.5c0 79.75 43.5 116 87 116 0 0-29-36.25-29-116v-101.5c0-36.25-21.75-72.5-43.5-72.5 43.5 0 101.5 14.5 101.5 72.5v101.5c0 79.75 43.5 116 87 116 0 0-29-36.25-29-116v-101.5c0-36.25-21.75-72.5-43.5-72.5 42.834 0 101.5 14.5 101.5 72.5v101.5c0 79.75 43.5 116 87 116 0 0-29-36.25-29-116v-101.5c0-94.25-87-130.5-152.25-130.5h-268.25v58z" fill="#377ce5"/>
 </g>
</svg>
